<svg width="1910" height="478" viewBox="0 0 1910 478" fill="none" xmlns="http://www.w3.org/2000/svg">
<path d="M286.689 336.594C314.191 333.56 337.223 322.439 354.068 300.31C364.352 286.8 370.331 271.339 371.905 254.365C374.758 223.612 365.748 196.526 345.601 173.327C330.895 156.393 312.095 146.119 290.148 141.506C283.196 140.045 276.194 139.416 269.116 139.089C264.609 138.881 260.108 138.738 255.6 138.75C254.395 138.753 253.364 138.621 253.464 137.041C253.791 131.859 254.122 126.677 254.457 121.397C258.806 120.637 263.161 121.024 267.463 121.16C278.586 121.511 289.624 122.716 300.417 125.625C311.76 128.683 322.406 133.348 332.384 139.53C349.516 150.145 363.043 164.262 373.275 181.605C381.515 195.57 386.996 210.532 389.197 226.577C390.507 236.128 390.489 245.751 389.526 255.4C388.547 265.21 386.54 274.712 383.102 283.946C376.026 302.952 364.494 318.661 348.356 330.93C333.413 342.291 316.623 349.413 298.125 352.645C286.884 354.609 275.568 354.908 264.209 354.832C255.185 354.772 246.154 355.022 237.138 354.753C225.548 354.407 213.97 354.748 202.392 354.971C195.954 355.095 189.528 355.863 183.1 356.382C182.198 356.455 181.228 356.552 180.547 357.362C180.603 358.487 181.447 359.139 182.08 359.891C190.592 370.004 200.768 378.137 212.224 384.624C227.09 393.043 243.061 397.98 260.112 399.668C271.952 400.84 283.733 400.733 295.441 398.916C309.62 396.715 323.307 392.709 336.472 386.876C350.529 380.649 363.231 372.347 375.029 362.585C384.483 354.764 392.763 345.848 399.962 335.9C406.741 326.534 412.494 316.583 417.001 305.959C423.417 290.833 427.235 275.064 428.515 258.635C430.677 230.872 425.576 204.381 414.338 179.119C401.042 149.226 380.476 125.326 353.021 107.447C337.752 97.5043 321.164 90.5638 303.454 86.4314C293.165 84.0306 282.726 82.6046 272.114 82.0828C262.939 81.6316 253.76 82.0624 244.602 81.4259C243.503 81.3496 242.521 81.3042 241.626 80.4378C235.936 74.9285 229.527 70.4465 222.299 67.1633C221.734 66.9068 221.193 66.5916 220.668 66.2611C220.497 66.1538 220.412 65.9105 220.041 65.3691C223.019 65.2081 225.746 64.9602 228.475 64.931C238.976 64.8187 249.478 64.7629 259.98 64.7133C266.037 64.6848 272.101 64.5335 278.151 64.7429C293.885 65.2875 309.118 68.5556 323.992 73.6052C340.832 79.3224 356.534 87.3435 370.867 97.8239C394.585 115.167 413.593 136.662 427.037 162.937C434.835 178.178 440.737 194.075 444.219 210.85C447.911 228.634 448.739 246.544 446.995 264.634C445.796 277.068 443.478 289.234 439.433 301.037C430.386 327.44 415.524 350.179 395.412 369.428C380.172 384.015 362.874 395.568 343.404 403.926C326.989 410.972 310.014 415.736 292.298 417.729C261.226 421.224 231.791 415.941 204.139 401.048C195.451 396.369 187.4 390.819 179.988 384.401C173.283 378.595 167.329 372.007 162.052 364.836C159.721 361.668 159.64 361.653 155.926 362.963C146.07 366.438 136.692 370.944 127.641 376.154C125.764 377.234 124.977 378.363 125.506 380.82C129.496 399.344 119.718 416.813 102.334 422.581C87.6028 427.469 71.172 422.283 62.6304 410.05C53.1396 396.457 53.3387 379.654 63.6652 367.187C71.3442 357.917 81.533 353.769 93.618 354.531C100.708 354.978 107.165 357.221 112.772 361.623C114.278 362.805 115.378 362.325 116.737 361.5C128.96 354.078 141.902 348.275 155.637 344.24C171.104 339.697 186.93 337.526 203.004 337.416C224.461 337.268 245.92 337.409 267.378 337.472C273.761 337.491 280.118 337.067 286.689 336.594ZM85.2845 404.213C94.4507 406.987 103.867 402.698 106.379 394.388C108.27 388.129 107.249 382.344 102.378 377.67C97.1419 372.647 90.9497 372.019 84.4562 374.587C78.1853 377.066 74.5745 382.758 74.7374 389.383C74.9119 396.483 78.326 401.417 85.2845 404.213Z" fill="black"/>
<path d="M106.341 215.762C114.135 225.897 123.307 234.113 135.532 237.963C156.742 244.643 175.236 239.421 191.052 224.161C199.834 215.688 206.191 205.566 209.609 193.857C210.88 189.5 212.627 185.808 215.988 182.803C217.488 181.462 217.9 179.428 218.485 177.602C223.329 162.47 226.919 147.063 228.59 131.231C229.359 123.951 229.605 116.699 229.109 109.371C228.353 98.2235 221.441 89.1826 210.717 86.0309C208.481 85.3737 206.206 84.8415 203.991 84.1208C202.171 83.5284 200.847 83.9717 199.34 85.1809C191.508 91.4648 179.652 87.9082 176.634 78.4736C174.357 71.3559 177.254 64.6201 183.924 61.5245C190.557 58.4456 198.651 60.5091 202.289 66.4661C203.628 68.6576 205.321 69.7213 207.719 70.3187C214.607 72.034 221.343 74.2277 227.197 78.4163C237.143 85.5331 242.626 95.2995 243.755 107.417C245.734 128.663 241.444 149.174 236.148 169.543C235.054 173.751 233.833 177.926 232.632 182.105C232.131 183.851 231.802 185.623 232.183 187.401C232.908 190.786 232.375 193.96 231.313 197.23C227.279 209.651 221.37 221.027 212.97 231.054C202.346 243.736 189.509 253.207 173.503 258.021C169.596 259.196 167.193 261.924 165.888 265.626C164.597 269.291 163.469 273.005 161.693 276.49C160.916 278.016 160.633 279.733 160.643 281.473C160.703 292.655 159.879 303.862 161.593 314.995C162.314 319.677 163.171 324.332 164.631 328.854C165.675 332.087 165.643 332.095 162.442 332.962C158.617 333.999 154.796 335.055 150.999 336.188C149.538 336.624 148.677 336.39 148.172 334.823C145.88 327.709 144.064 320.509 143.1 313.07C142.088 305.255 142.246 297.424 142.205 289.587C142.173 283.571 141.91 277.643 138.502 272.299C137.53 270.774 137.221 268.813 136.684 267.029C135.271 262.336 132.507 259.257 127.662 257.533C112.762 252.233 100.687 242.93 91.0337 230.45C86.5073 224.598 82.0958 218.642 79.0765 211.848C76.8088 206.744 74.8572 201.497 72.8617 196.277C72.0138 194.059 71.7338 191.624 72.5015 189.398C73.6499 186.068 73.1276 182.955 72.0176 179.831C67.3442 166.682 64.2115 153.139 61.8014 139.426C59.6933 127.43 58.5913 115.301 60.6856 103.244C62.9652 90.1211 70.4681 80.6609 82.6388 74.955C87.3911 72.727 92.3761 71.278 97.4022 69.9191C98.9235 69.5078 99.9628 68.8451 100.71 67.3459C103.186 62.3827 109.13 59.4397 114.774 60.1817C120.871 60.9834 125.836 65.3726 127.072 71.0545C128.39 77.113 126.259 82.8347 121.495 86.0236C116.545 89.3381 109.728 89.231 104.665 85.3857C102.844 84.0024 101.206 83.6461 99.1098 84.1441C94.0117 85.3555 89.0619 86.9097 84.7465 90.0108C78.2009 94.7147 75.1761 101.293 74.8482 109.174C73.9917 129.762 77.6103 149.704 83.7139 169.272C84.8016 172.759 85.9035 176.242 87.0022 179.726C87.5482 181.458 88.4019 182.901 89.8917 184.099C92.1717 185.933 93.8746 188.346 94.4869 191.238C96.4151 200.344 100.845 208.211 106.341 215.762Z" fill="black"/>
<path d="M253.609 252.097C253.608 259.094 253.551 265.862 253.639 272.629C253.665 274.637 252.958 275.47 250.953 275.407C248.622 275.333 246.286 275.388 243.952 275.422C242.346 275.445 241.603 274.88 241.607 273.091C241.659 248.354 241.653 223.616 241.645 198.879C241.644 197.493 241.789 196.392 243.588 196.429C252.29 196.605 261.02 195.808 269.694 196.855C282.923 198.451 290.392 206.96 290.459 220.267C290.47 222.595 290.451 224.911 290.085 227.24C287.923 241.01 275.433 246.677 266.541 247.081C263.203 247.232 259.854 247.507 256.524 247.374C254.057 247.275 253.268 248.187 253.594 250.47C253.66 250.927 253.607 251.402 253.609 252.097ZM267.826 238.271C273.046 236.087 276.17 232.246 277.017 226.617C277.517 223.289 277.429 219.935 276.98 216.633C276.115 210.264 272.524 206.519 266.25 205.018C262.742 204.179 259.186 204.142 255.61 204.158C254.091 204.165 253.556 204.791 253.562 206.256C253.599 216.661 253.61 227.066 253.594 237.471C253.592 238.829 254.082 239.479 255.485 239.473C259.515 239.457 263.572 239.776 267.826 238.271Z" fill="black"/>
<path d="M295.257 221.6C296.681 214.711 299.433 208.662 304.288 203.799C311.089 196.988 319.614 195.039 328.919 195.707C333.373 196.026 337.634 197.171 341.741 198.936C342.98 199.468 343.545 200.107 343.305 201.572C342.966 203.634 342.893 205.741 342.724 207.83C342.611 209.239 342.013 209.669 340.759 208.854C339.847 208.26 338.95 207.643 338.03 207.062C333.309 204.075 328.139 202.896 322.642 203.716C317.117 204.54 313.39 207.962 311.057 212.859C309.038 217.096 307.994 221.637 307.733 226.334C307.319 233.796 307.225 241.229 309.108 248.563C310.483 253.922 312.696 258.825 316.406 262.967C321.01 268.106 327.136 269.509 334.033 267.036C336.379 266.195 338.633 265.149 340.655 263.655C341.2 263.252 341.722 262.719 342.767 262.954C343.436 265.356 343.264 267.886 343 270.405C342.932 271.045 342.297 271.404 341.735 271.693C330.871 277.278 317.024 277.942 306.867 269.453C301.149 264.675 297.949 258.301 295.994 251.337C293.261 241.6 293.365 231.698 295.257 221.6Z" fill="black"/>
<path d="M568.08 295V180.44H610.48C628.027 180.44 642.133 185.667 652.8 196.12C663.52 206.573 668.88 220.44 668.88 237.72C668.88 254.893 663.493 268.733 652.72 279.24C641.947 289.747 627.867 295 610.48 295H568.08ZM591.6 274.76H609.68C620.293 274.76 628.747 271.48 635.04 264.92C641.387 258.307 644.56 249.427 644.56 238.28V238.2C644.56 226.893 641.467 217.88 635.28 211.16C629.147 204.387 620.613 201 609.68 201H591.6V274.76ZM665.26 295L710.14 180.44H731.42L776.3 295H751.98L720.94 213.16L720.3 211.32L719.58 213.16L688.38 295H665.26ZM687.1 269.56L692.94 253.64H747.82L753.82 269.56H687.1ZM797.195 295L754.395 180.44H777.835L807.435 260.84L808.555 263.88H808.635L809.595 260.76L838.955 180.44H861.675L817.915 295H797.195ZM871.205 295V180.44H949.285V200.04H894.885V275.72H949.685V295H871.205ZM887.605 246.2V228.28H943.125V246.2H887.605ZM964.955 295L965.035 180.44H987.275L1037.84 255.4V244.76V180.44H1060.16V295H1040.96L987.275 217.8V228.2V295H964.955ZM1105.47 295V190.28H1128.99V295H1105.47ZM1071.47 201.72V180.44H1162.59V201.72H1071.47ZM1174.02 295V180.44H1219.3C1231.56 180.44 1241.27 183.56 1248.42 189.8C1255.56 196.04 1259.14 204.653 1259.14 215.64V215.72C1259.14 225.907 1255.67 234.227 1248.74 240.68C1241.86 247.133 1232.63 250.36 1221.06 250.36H1184.26V232.92H1216.98C1223.16 232.92 1227.86 231.48 1231.06 228.6C1234.26 225.72 1235.86 221.533 1235.86 216.04C1235.86 210.707 1234.23 206.6 1230.98 203.72C1227.78 200.787 1223.08 199.32 1216.9 199.32H1197.54V295H1174.02ZM1241.62 295L1210.34 243L1234.5 240.92L1268.18 295H1241.62ZM1299.13 248.12L1257.13 180.44H1282.81L1307.69 220.84L1310.57 225.4L1313.29 221L1338.41 180.44H1363.69L1320.73 248.12H1299.13ZM1298.33 295V238.84H1321.77V295H1298.33ZM1461.19 296.6C1443.8 296.6 1429.7 291.16 1418.87 280.28C1408.04 269.4 1402.63 255.293 1402.63 237.96C1402.63 220.36 1408.23 206.12 1419.43 195.24C1430.63 184.307 1444.74 178.84 1461.75 178.84C1468.26 178.84 1473.96 179.533 1478.87 180.92C1483.83 182.253 1488.31 184.093 1492.31 186.44C1496.31 188.733 1499.72 191.213 1502.55 193.88C1505.43 196.547 1506.87 197.88 1506.87 197.88L1491.67 214.6C1491.67 214.6 1490.76 213.64 1488.95 211.72C1487.14 209.747 1484.95 207.987 1482.39 206.44C1479.88 204.84 1477 203.533 1473.75 202.52C1470.55 201.453 1466.71 200.92 1462.23 200.92C1452.26 200.92 1443.88 204.36 1437.11 211.24C1430.34 218.067 1426.95 226.973 1426.95 237.96C1426.95 248.68 1430.2 257.453 1436.71 264.28C1443.22 271.107 1451.62 274.52 1461.91 274.52C1466.6 274.52 1470.74 273.987 1474.31 272.92C1477.88 271.853 1480.98 270.44 1483.59 268.68C1486.2 266.867 1488.36 264.92 1490.07 262.84C1491.78 260.76 1492.63 259.72 1492.63 259.72L1508.71 274.52C1508.71 274.52 1507.3 276.147 1504.47 279.4C1501.7 282.653 1498.26 285.587 1494.15 288.2C1490.04 290.76 1485.27 292.813 1479.83 294.36C1474.44 295.853 1468.23 296.6 1461.19 296.6ZM1519.8 295V180.44H1543.32V273.72H1594.52V295H1519.8ZM1605.89 295V180.44H1629.49V295H1605.89ZM1649.64 295L1649.72 180.44H1671.96L1722.52 255.4V244.76V180.44H1744.84V295H1725.64L1671.96 217.8V228.2V295H1649.64ZM1764.96 295V180.44H1788.56V295H1764.96ZM1861.35 296.6C1843.96 296.6 1829.85 291.16 1819.03 280.28C1808.2 269.4 1802.79 255.293 1802.79 237.96C1802.79 220.36 1808.39 206.12 1819.59 195.24C1830.79 184.307 1844.89 178.84 1861.91 178.84C1868.41 178.84 1874.12 179.533 1879.02 180.92C1883.99 182.253 1888.47 184.093 1892.47 186.44C1896.47 188.733 1899.88 191.213 1902.71 193.88C1905.59 196.547 1907.03 197.88 1907.03 197.88L1891.83 214.6C1891.83 214.6 1890.92 213.64 1889.11 211.72C1887.29 209.747 1885.11 207.987 1882.55 206.44C1880.04 204.84 1877.16 203.533 1873.91 202.52C1870.71 201.453 1866.87 200.92 1862.39 200.92C1852.41 200.92 1844.04 204.36 1837.27 211.24C1830.49 218.067 1827.11 226.973 1827.11 237.96C1827.11 248.68 1830.36 257.453 1836.87 264.28C1843.37 271.107 1851.77 274.52 1862.07 274.52C1866.76 274.52 1870.89 273.987 1874.47 272.92C1878.04 271.853 1881.13 270.44 1883.75 268.68C1886.36 266.867 1888.52 264.92 1890.23 262.84C1891.93 260.76 1892.79 259.72 1892.79 259.72L1908.87 274.52C1908.87 274.52 1907.45 276.147 1904.63 279.4C1901.85 282.653 1898.41 285.587 1894.31 288.2C1890.2 290.76 1885.43 292.813 1879.99 294.36C1874.6 295.853 1868.39 296.6 1861.35 296.6Z" fill="black"/>
</svg>
